<?xml version="1.0" standalone="no"?>
<!DOCTYPE svg PUBLIC "-//W3C//DTD SVG 20010904//EN"
 "http://www.w3.org/TR/2001/REC-SVG-20010904/DTD/svg10.dtd">
<svg version="1.0" xmlns="http://www.w3.org/2000/svg"
 width="1120.000000pt" height="1120.000000pt" viewBox="0 0 1120.000000 1120.000000"
 preserveAspectRatio="xMidYMid meet">
<metadata>
Created by potrace 1.11, written by Peter Selinger 2001-2013
</metadata>
<g transform="translate(0.000000,1120.000000) scale(0.100000,-0.100000)"
fill="#000000" stroke="none">
<path d="M8417 9274 c-2 -3 -25 -6 -51 -9 -26 -2 -59 -6 -74 -9 -15 -3 -40 -8
-57 -11 -155 -26 -357 -91 -530 -171 -33 -15 -62 -28 -65 -28 -3 -1 -50 -26
-105 -56 -55 -30 -109 -59 -120 -63 -11 -4 -22 -11 -25 -15 -3 -4 -22 -16 -42
-27 -21 -11 -38 -23 -38 -27 0 -5 -7 -8 -15 -8 -8 0 -15 -3 -15 -8 0 -4 -12
-13 -27 -19 -16 -7 -39 -21 -53 -32 -14 -10 -88 -66 -165 -124 -77 -58 -167
-128 -200 -157 -33 -29 -87 -75 -120 -104 -81 -69 -445 -433 -525 -525 -36
-41 -74 -83 -85 -95 -44 -46 -238 -279 -354 -426 -67 -85 -128 -163 -136 -172
-13 -16 -13 -30 1 -88 10 -44 24 -104 30 -130 3 -14 14 -61 26 -105 11 -44 22
-91 24 -105 3 -14 7 -33 10 -42 3 -9 7 -27 9 -40 5 -25 30 -129 46 -193 5 -22
12 -49 14 -60 2 -11 18 -78 35 -150 17 -71 33 -139 36 -150 2 -11 7 -31 10
-45 11 -46 24 -105 30 -130 3 -14 10 -43 16 -65 12 -48 18 -73 23 -100 4 -17
16 -67 30 -125 3 -8 11 -46 20 -85 9 -38 18 -79 21 -90 3 -11 7 -29 9 -40 2
-11 11 -49 20 -85 9 -36 18 -72 20 -80 2 -8 8 -35 15 -60 6 -25 13 -54 15 -65
2 -11 13 -60 25 -110 12 -49 25 -106 30 -125 8 -36 59 -254 66 -280 4 -19 23
-94 24 -97 0 -2 0 -4 1 -5 0 -2 2 -10 4 -18 2 -8 6 -26 9 -40 11 -46 47 -205
55 -240 9 -39 43 -179 96 -405 20 -82 38 -161 41 -174 3 -13 12 -51 20 -85 8
-34 17 -71 20 -84 2 -12 14 -62 25 -110 12 -48 22 -91 24 -97 1 -5 5 -21 8
-35 37 -153 60 -248 64 -269 2 -14 13 -61 24 -105 11 -45 21 -90 24 -101 2
-11 11 -49 20 -85 9 -35 17 -71 19 -80 2 -8 6 -26 9 -40 27 -111 60 -249 63
-270 3 -14 12 -52 21 -85 8 -33 16 -64 17 -70 21 -108 52 -215 62 -215 7 0 35
18 63 40 28 22 55 40 61 40 5 0 10 3 10 8 0 4 9 12 19 17 22 11 133 86 141 94
9 11 69 51 75 51 4 0 13 6 20 13 22 19 37 30 85 62 25 16 47 32 50 35 3 3 34
25 70 50 36 24 70 48 75 52 57 45 236 168 244 168 6 0 11 4 11 8 0 6 158 124
284 212 78 54 302 225 304 232 2 4 10 8 17 8 7 0 15 3 17 8 2 4 41 36 88 71
113 86 164 125 170 131 3 3 23 19 45 35 22 16 47 35 55 42 8 6 101 80 205 163
105 83 201 161 215 174 14 12 66 55 115 96 50 41 92 77 95 80 5 5 117 102 174
150 16 14 42 36 57 50 15 14 57 52 94 85 270 239 612 591 787 808 18 22 41 49
51 59 9 10 16 19 15 21 -1 1 30 45 68 97 39 52 87 122 106 155 64 106 88 150
94 168 4 9 10 17 15 17 5 0 9 6 9 14 0 8 11 37 25 64 14 28 25 55 25 61 0 6 5
11 10 11 6 0 10 5 10 11 0 6 6 25 14 42 51 119 66 156 66 169 0 7 7 24 16 36
9 13 13 26 10 29 -3 3 -2 11 3 17 10 13 65 187 85 271 8 33 18 74 22 90 13 52
14 59 19 90 2 17 9 55 15 85 6 30 14 80 18 110 8 66 8 400 -1 485 -11 111 -18
160 -23 176 -2 9 -7 34 -9 55 -10 74 -50 255 -75 339 -5 17 -22 68 -37 115
-15 47 -27 87 -28 90 -2 18 -90 226 -97 228 -4 2 -8 9 -8 16 0 7 -18 46 -40
86 -22 40 -40 75 -40 77 0 2 -24 39 -52 82 -119 176 -234 289 -376 370 -41 22
-79 41 -86 41 -7 0 -17 5 -24 12 -7 7 -12 9 -12 6 0 -4 -16 0 -35 8 -20 8 -40
12 -45 9 -5 -3 -11 -2 -14 3 -3 5 -50 9 -105 10 -201 2 -378 -77 -590 -263
-59 -52 -185 -181 -236 -241 -22 -26 -47 -55 -55 -64 -8 -9 -19 -24 -25 -32
-5 -9 -48 -67 -95 -129 -93 -124 -212 -300 -231 -342 -7 -15 -16 -27 -21 -27
-4 0 -8 -4 -8 -10 0 -5 -16 -34 -35 -64 -19 -30 -35 -58 -35 -61 0 -4 -10 -21
-22 -38 -12 -17 -23 -37 -24 -43 -1 -6 -18 -37 -38 -68 -20 -31 -33 -56 -30
-56 4 0 1 -6 -5 -14 -38 -46 -228 -455 -313 -675 -23 -58 -58 -150 -79 -205
-22 -54 -39 -104 -39 -112 0 -8 -5 -14 -10 -14 -6 0 -9 -3 -8 -7 3 -8 -22 -80
-47 -138 -7 -16 -29 -79 -50 -140 -20 -60 -41 -116 -47 -122 -6 -7 -8 -13 -5
-13 3 0 -6 -30 -20 -67 -25 -70 -63 -180 -67 -198 -1 -5 -24 -77 -50 -158 -26
-82 -49 -156 -51 -165 -2 -10 -20 -73 -40 -142 -32 -110 -79 -289 -91 -345 -5
-23 -9 -43 -25 -105 -6 -25 -13 -56 -15 -70 -3 -14 -13 -61 -24 -105 -10 -44
-22 -96 -26 -115 -4 -19 -9 -42 -11 -50 -2 -8 -5 -26 -8 -40 -2 -14 -25 -115
-50 -225 -26 -110 -49 -211 -51 -225 -3 -14 -8 -34 -11 -45 -4 -11 -7 -23 -8
-27 0 -3 -3 -9 -6 -12 -3 -4 -6 11 -6 31 -1 21 -5 121 -9 223 -19 434 -9 1121
20 1360 4 30 9 73 11 95 4 40 14 122 20 160 1 11 6 43 10 70 7 51 11 71 20
115 3 14 7 41 9 60 2 19 9 53 15 75 6 22 13 58 17 80 9 60 108 446 144 560 17
55 33 107 35 115 2 8 15 49 30 90 14 41 28 82 30 90 16 68 163 385 216 465 11
17 25 42 31 58 7 15 16 27 20 27 4 0 8 5 8 11 0 12 60 103 72 107 4 2 8 8 8
13 0 11 42 72 53 77 4 2 7 10 7 18 0 8 5 14 10 14 6 0 10 5 10 10 0 6 5 16 10
23 6 7 47 62 92 122 45 61 84 112 87 115 3 3 22 25 41 50 19 25 38 47 42 48 4
2 8 10 8 17 0 7 3 15 8 17 7 3 31 31 87 103 17 22 71 89 120 151 102 126 112
139 189 244 31 41 59 80 63 85 10 12 43 62 60 90 22 36 84 160 88 175 32 119
26 170 -24 223 -22 24 -72 58 -91 62 -3 1 -30 9 -60 18 -30 9 -75 19 -100 23
-25 3 -56 9 -70 11 -33 6 -387 12 -393 7z"/>
<path d="M2618 8684 c-3 -3 -64 -7 -134 -9 -71 -3 -151 -7 -179 -10 -27 -3
-68 -7 -90 -10 -22 -2 -53 -6 -70 -9 -16 -2 -50 -8 -75 -11 -84 -13 -232 -48
-325 -75 -38 -12 -75 -22 -82 -24 -7 -1 -16 -5 -19 -9 -4 -4 -13 -7 -20 -7 -7
0 -25 -5 -41 -11 -15 -6 -30 -11 -33 -11 -3 -1 -30 -12 -60 -26 -64 -28 -103
-45 -110 -47 -32 -8 -320 -172 -365 -207 -5 -5 -50 -38 -100 -75 -77 -58 -307
-276 -356 -339 -66 -85 -118 -155 -139 -189 -13 -22 -27 -42 -30 -45 -12 -9
-90 -148 -90 -159 0 -6 -4 -11 -10 -11 -5 0 -10 -6 -10 -12 0 -7 -15 -42 -33
-78 -50 -98 -139 -339 -162 -440 0 -3 -5 -23 -10 -45 -5 -22 -9 -42 -10 -45
-1 -5 -9 -45 -20 -100 -3 -14 -7 -41 -10 -60 -3 -19 -7 -46 -9 -60 -20 -105
-28 -528 -13 -660 4 -36 9 -83 11 -105 10 -92 36 -235 71 -390 8 -33 55 -188
65 -210 4 -11 22 -57 40 -102 36 -94 144 -310 167 -335 9 -10 13 -18 10 -18
-9 0 100 -163 167 -250 167 -220 364 -419 593 -602 48 -39 91 -76 95 -82 4 -6
8 -8 8 -4 0 7 25 -11 55 -40 8 -6 18 -12 23 -12 6 0 12 -3 14 -7 5 -13 339
-233 352 -233 2 0 41 -22 87 -50 46 -27 89 -50 96 -50 6 0 13 -4 15 -9 2 -4
71 -41 153 -81 83 -41 189 -93 238 -117 48 -23 88 -42 90 -41 1 1 20 -7 42
-16 22 -10 49 -22 60 -26 11 -5 53 -23 94 -41 41 -17 79 -32 85 -33 6 -1 17
-5 24 -10 7 -4 25 -12 40 -16 15 -5 59 -21 97 -35 76 -29 374 -134 390 -139
36 -9 133 -38 145 -43 18 -7 26 -10 70 -22 19 -5 76 -21 125 -36 131 -38 190
-54 280 -76 44 -11 91 -24 105 -29 14 -5 39 -11 55 -13 17 -2 37 -7 45 -10 13
-5 115 -30 175 -43 40 -8 61 -13 108 -23 26 -6 64 -14 85 -17 20 -3 45 -10 55
-15 9 -5 17 -8 17 -6 0 3 19 0 43 -4 23 -5 53 -11 67 -14 14 -3 41 -8 60 -12
19 -4 42 -8 50 -9 8 -1 89 -16 180 -32 91 -17 183 -33 205 -36 45 -7 86 -14
130 -21 17 -3 50 -7 75 -10 25 -3 52 -8 60 -10 8 -2 40 -7 70 -10 30 -3 62 -8
70 -10 17 -5 92 -14 165 -21 28 -2 66 -6 85 -9 92 -12 115 -15 173 -21 34 -3
73 -8 87 -10 14 -2 61 -7 105 -9 44 -3 96 -8 115 -10 35 -5 123 -12 257 -20
69 -4 72 -3 71 18 -1 12 -6 28 -11 35 -6 7 -7 15 -4 18 3 3 0 22 -8 43 -7 20
-15 55 -18 77 -3 22 -10 52 -16 67 -6 15 -8 27 -6 27 2 0 0 12 -6 28 -6 15
-13 37 -15 50 -7 37 -13 64 -29 127 -8 33 -17 69 -19 80 -4 19 -16 68 -83 345
-14 58 -27 114 -28 125 -2 11 -4 20 -5 20 -2 0 -10 34 -13 60 -2 12 -7 26 -11
33 -4 7 -5 12 -2 12 3 0 1 12 -5 28 -6 15 -13 38 -15 52 -3 14 -9 41 -14 60
-5 19 -11 46 -14 60 -3 14 -12 52 -20 85 -18 74 -67 275 -71 295 -2 8 -8 33
-14 55 -6 22 -12 51 -15 65 -2 14 -5 25 -6 25 -1 0 -3 7 -5 16 -1 10 -11 50
-20 90 -9 41 -18 81 -20 89 -2 8 -20 83 -40 165 -20 83 -38 159 -41 170 -2 11
-22 94 -45 185 -22 91 -42 174 -44 185 -3 11 -9 40 -15 65 -6 25 -13 56 -16
70 -3 14 -7 32 -9 40 -2 8 -4 15 -5 15 -1 0 -3 9 -5 20 -2 11 -21 88 -41 170
-20 83 -37 157 -39 165 -2 8 -8 33 -13 55 -6 22 -13 51 -16 65 -2 14 -18 81
-35 150 -17 69 -33 134 -35 145 -3 11 -10 43 -16 70 -7 28 -13 57 -15 65 -2 8
-4 15 -6 15 -1 0 -3 9 -4 20 -2 11 -10 49 -19 85 -9 36 -19 76 -22 90 -3 14
-8 34 -11 45 -4 11 -8 25 -9 30 -1 6 -5 21 -8 35 -3 14 -11 48 -17 75 -6 28
-12 55 -13 60 -9 31 -19 75 -51 210 -20 83 -40 166 -45 185 -5 19 -12 50 -15
69 -3 19 -8 38 -11 43 -3 5 -7 19 -9 31 -6 36 -16 80 -20 87 -2 4 -7 22 -10
41 -3 19 -15 70 -26 114 -11 43 -22 91 -24 105 -7 58 -38 102 -151 216 -138
139 -187 182 -345 301 -41 32 -87 64 -102 72 -15 8 -27 18 -27 23 0 4 -7 8
-15 8 -8 0 -15 5 -15 10 0 6 -4 10 -9 10 -6 0 -53 27 -106 60 -79 49 -309 167
-440 226 -75 33 -327 121 -374 130 -14 3 -28 7 -33 10 -12 8 -177 50 -228 58
-8 1 -28 6 -45 9 -16 4 -43 9 -60 12 -16 3 -39 7 -50 9 -18 3 -88 14 -143 21
-12 2 -50 6 -85 10 -34 4 -78 8 -97 11 -19 2 -100 6 -179 9 -78 3 -146 7 -151
10 -4 2 -10 2 -12 -1z m337 -898 c117 -8 200 -17 265 -31 14 -3 39 -7 55 -10
35 -5 70 -13 70 -15 0 -1 7 -3 15 -5 8 -2 35 -8 60 -14 25 -7 52 -13 60 -15
30 -8 205 -66 225 -75 11 -5 46 -19 77 -30 32 -11 66 -25 75 -30 10 -5 29 -13
43 -19 59 -24 388 -190 400 -202 3 -3 21 -14 40 -24 19 -10 100 -62 179 -115
79 -53 151 -100 159 -106 19 -13 46 -33 80 -63 l27 -23 -120 6 c-66 3 -149 7
-185 9 -110 8 -253 18 -300 21 -416 27 -984 27 -1195 0 -16 -2 -55 -6 -85 -9
-60 -7 -88 -11 -168 -27 -29 -6 -65 -12 -80 -15 -15 -2 -34 -5 -42 -7 -51 -13
-77 -19 -90 -24 -8 -4 -19 -5 -24 -4 -5 1 -16 -1 -25 -5 -9 -4 -25 -9 -36 -11
-11 -2 -89 -26 -174 -54 -85 -28 -159 -52 -165 -53 -6 -1 -18 -6 -26 -11 -8
-5 -19 -10 -25 -11 -5 -1 -28 -10 -50 -20 -22 -10 -42 -18 -45 -19 -43 -13
-334 -152 -435 -208 -86 -48 -161 -92 -185 -108 -14 -9 -72 -47 -130 -85 -58
-37 -106 -71 -108 -76 -2 -4 -9 -8 -16 -8 -8 0 -24 -10 -37 -23 -31 -30 -94
-77 -103 -77 -4 0 -5 12 -2 28 2 15 5 27 6 27 2 0 5 13 13 55 9 46 20 85 26
95 3 6 6 15 6 20 1 6 4 17 7 25 4 8 19 49 34 90 15 41 47 114 71 161 24 47 43
91 43 98 0 6 4 11 9 11 5 0 16 15 24 33 19 40 151 226 198 281 129 147 343
326 467 391 20 11 39 22 42 25 11 12 153 81 232 114 121 50 236 87 353 112 11
3 38 7 60 10 22 3 46 7 54 10 7 2 70 7 140 10 69 4 128 8 129 10 2 1 9 1 15
-1 7 -2 48 -7 92 -9z"/>
</g>
</svg>
