<svg xmlns="http://www.w3.org/2000/svg" width="47" height="33" viewBox="0 0 47 33">
    <g fill="none" fill-rule="evenodd">
        <path fill="#6DC0F3" d="M17.207 11.358c.626 0 .701-1.264-.566-2.14-2.421-1.671-6.235-1.663-8.616-.735-1.97.77-3.697 2.423-4.763 4.66-.29.616-.215 1.51-.003 1.688.28.234.862.14 1.345-.244 1.809-1.444 2.269-1.961 4.463-2.774 1.603-.594 2.243-.712 5.096-.662 1.209.02 1.625.207 3.044.207zm10.358 18.783C15.885 28.078 3.015 28.101.22 17.912-2.454 2.265 20.025 1.04 22.92 13.143c1.014 6.157 3.346 11.102 4.645 16.998z"/>
        <path fill="#51D3BF" d="M22.897 13.215C22.8 5.775 28.43-.103 35.173.92c.406.06.845.192 1.175.583.23.269.132.97-.049 1.402-.841 2.003-3.004 3.609-4.776 8.488-1.795 4.947-1.83 8.239-1.568 13.339 1.131-4.412 1.042-5.623 3.889-12.43 1.082-2.584 4.475-8.606 7.585-8.677 3.62-.082 5.349 5.66 5.165 8.848-.11 1.864-.989 4.196-1.99 5.77-3.106 4.874-10.134 10.287-14.5 13.915-.198.165-.368.289-.6.373-1.405.481-1.52-1.285-1.962-2.318-1.299-5.897-3.63-10.842-4.645-16.998z"/>
    </g>
</svg>
