<?xml version="1.0" encoding="utf-8"?>
<!-- Generator: Adobe Illustrator 20.1.0, SVG Export Plug-In . SVG Version: 6.00 Build 0)  -->
<svg version="1.1" id="Lager_1" xmlns="http://www.w3.org/2000/svg" xmlns:xlink="http://www.w3.org/1999/xlink" x="0px" y="0px"
	 viewBox="0 0 82.3 23" style="enable-background:new 0 0 82.3 23;" xml:space="preserve">
<style type="text/css">
	.st0{fill:#6DC0F3;}
	.st1{fill:#51D3BF;}
	.st2{fill:#FFFFFF;}
</style>
<title>Group 2</title>
<desc>Created with Sketch.</desc>
<g id="Logo">
	<g id="Group-2">
		<g transform="translate(0.000000, -4.000000)">
			<g id="Group" transform="translate(0.000000, 4.000000)">
				<path id="Combined-Shape" class="st0" d="M20.4,22c0,0-18.6-0.8-20.3-10.5c-0.9-5.3,2.4-9.6,8-9.6s8.3,3.6,8.3,3.6L20.4,22z
					 M7,4.9C3.3,6.2,2.9,9.7,2.9,9.7S5,7.9,8.1,7.2c2.5-0.6,5.6-0.1,6.8-0.1C15,7.1,10.8,3.6,7,4.9z"/>
				<path id="Fill-18" class="st1" d="M17.5,6.6c3.7-4.9,7.2-7.1,10.4-6.5c2.7,0.5-2.2,3.7-3.4,7.3c-1.3,3.7-1.3,6.1-1.1,9.9
					c0.8-3.3,0.7-4.2,2.7-9.2c0.8-1.9,3.1-6.4,5.3-6.4c2.5-0.1,3.7,4.2,3.6,6.6c-0.1,1.4-0.7,3.1-1.4,4.3
					c-1.4,2.4-5.5,5.9-12.2,10.5L17.5,6.6z"/>
			</g>
			<path id="MYM" class="st2" d="M42.2,11.7v12.2L39.5,24V7.7l4.7-0.1L47,17.7l2.6-9.8l4.3-0.3v16.2l-3.3,0.3V11.8L47.5,24h-2
				L42.2,11.7z M59.4,17.5l-4-10h3.5l2.3,6.9l2.4-6.9h2.8l-3.8,9.6v6.8l-3.3,0.3V17.5z M70.6,11.7v12.2L68,24V7.7l4.7-0.1l2.7,10.2
				L78,7.9l4.3-0.3v16.2L79,24.1V11.8L75.9,24h-2L70.6,11.7z"/>
		</g>
	</g>
</g>
</svg>
