<?xml version="1.0" encoding="UTF-8"?>
<svg width="82px" height="23px" viewBox="0 0 82 23" version="1.1" xmlns="http://www.w3.org/2000/svg" xmlns:xlink="http://www.w3.org/1999/xlink">
    <!-- Generator: Sketch 46.2 (44496) - http://www.bohemiancoding.com/sketch -->
    <title>Group 2</title>
    <desc>Created with Sketch.</desc>
    <defs></defs>
    <g id="Logo" stroke="none" stroke-width="1" fill="none" fill-rule="evenodd">
        <g id="Logo_white">
            <g id="Group-2" transform="translate(0.000000, -4.000000)">
                <g id="Group" transform="translate(0.000000, 4.000000)">
                    <path d="M20.4166667,22 C20.4166667,22 1.82386847,21.2142817 0.156232851,11.4533009 C-0.776851539,6.13075447 2.54315713,1.88990363 8.14881932,1.87504626 C13.7544815,1.86018889 16.4562784,5.42891767 16.4562784,5.42891767 L20.4166667,22 Z M7.0231545,4.9470383 C3.3151203,6.23115532 2.89912339,9.69322485 2.89912339,9.69322485 C2.89912339,9.69322485 5.03408456,7.86770718 8.1359813,7.17170195 C10.6001469,6.61879117 13.7421927,7.09702356 14.9702166,7.09702356 C14.9702166,7.09702356 10.8117187,3.6350332 7.0231545,4.9470383 Z" id="Combined-Shape" fill="#6DC0F3"></path>
                    <path d="M17.5,6.60247817 C21.2357757,1.66694723 24.6978862,-0.501501597 27.8863317,0.0971316886 C30.5639774,0.599861889 25.696846,3.82366509 24.4583466,7.43917937 C23.2036814,11.105462 23.1797178,13.5442659 23.3622975,17.3236235 C24.1530961,14.0546417 24.0909049,13.1567726 26.0802634,8.11320615 C26.8370185,6.19823933 29.2077025,1.73523974 31.3815427,1.68274065 C33.9108429,1.62235708 35.1192926,5.87689874 34.990726,8.23974242 C34.914461,9.62106464 34.3001562,11.3489193 33.5996965,12.5158222 C32.1530056,14.923601 28.0741525,18.4183269 21.3631373,23 L17.5,6.60247817 Z" id="Fill-18" fill="#51D3BF"></path>
                </g>
                <path d="M42.1894531,11.7109375 L42.1894531,23.8710938 L39.5253906,24 L39.5253906,7.65039062 L44.2412109,7.52148438 L46.9697266,17.7265625 L49.5908203,7.88671875 L53.8984375,7.62890625 L53.8984375,23.8710938 L50.5683594,24.1289062 L50.5683594,11.7539062 L47.4853516,24 L45.4980469,24 L42.1894531,11.7109375 Z M59.3554688,17.46875 L55.3808594,7.5 L58.9257812,7.5 L61.1923828,14.375 L63.6416016,7.5 L66.4238281,7.5 L62.6103516,17.0927734 L62.6103516,23.8710938 L59.3554688,24.1289062 L59.3554688,17.46875 Z M70.6347656,11.7109375 L70.6347656,23.8710938 L67.9707031,24 L67.9707031,7.65039062 L72.6865234,7.52148438 L75.4150391,17.7265625 L78.0361328,7.88671875 L82.34375,7.62890625 L82.34375,23.8710938 L79.0136719,24.1289062 L79.0136719,11.7539062 L75.9306641,24 L73.9433594,24 L70.6347656,11.7109375 Z" id="MYM" fill="#000000"></path>
            </g>
        </g>
    </g>
</svg>