<?xml version="1.0" encoding="UTF-8"?>
<svg width="35px" height="23px" viewBox="0 0 35 23" version="1.1" xmlns="http://www.w3.org/2000/svg" xmlns:xlink="http://www.w3.org/1999/xlink">
    <!-- Generator: Sketch 46.2 (44496) - http://www.bohemiancoding.com/sketch -->
    <title>Logo</title>
    <desc>Created with Sketch.</desc>
    <defs></defs>
    <g id="Logo" stroke="none" stroke-width="1" fill="none" fill-rule="evenodd">
        <g id="Group">
            <g>
                <path d="M20.4166667,22 C20.4166667,22 1.82386847,21.2142817 0.156232851,11.4533009 C-0.776851539,6.13075447 2.54315713,1.88990363 8.14881932,1.87504626 C13.7544815,1.86018889 16.4562784,5.42891767 16.4562784,5.42891767 L20.4166667,22 Z M7.0231545,4.9470383 C3.3151203,6.23115532 2.89912339,9.69322485 2.89912339,9.69322485 C2.89912339,9.69322485 5.03408456,7.86770718 8.1359813,7.17170195 C10.6001469,6.61879117 13.7421927,7.09702356 14.9702166,7.09702356 C14.9702166,7.09702356 10.8117187,3.6350332 7.0231545,4.9470383 Z" id="Combined-Shape" fill="#6DC0F3"></path>
                <path d="M17.5,6.60247817 C21.2357757,1.66694723 24.6978862,-0.501501597 27.8863317,0.0971316886 C30.5639774,0.599861889 25.696846,3.82366509 24.4583466,7.43917937 C23.2036814,11.105462 23.1797178,13.5442659 23.3622975,17.3236235 C24.1530961,14.0546417 24.0909049,13.1567726 26.0802634,8.11320615 C26.8370185,6.19823933 29.2077025,1.73523974 31.3815427,1.68274065 C33.9108429,1.62235708 35.1192926,5.87689874 34.990726,8.23974242 C34.914461,9.62106464 34.3001562,11.3489193 33.5996965,12.5158222 C32.1530056,14.923601 28.0741525,18.4183269 21.3631373,23 L17.5,6.60247817 Z" id="Fill-18" fill="#51D3BF"></path>
            </g>
        </g>
    </g>
</svg>